<svg width="16" height="16" viewBox="0 0 16 16" fill="none" xmlns="http://www.w3.org/2000/svg">
<path fill-rule="evenodd" clip-rule="evenodd" d="M4.25 0.5C4.66421 0.5 5 0.835786 5 1.25V2H11V1.25C11 0.835786 11.3358 0.5 11.75 0.5C12.1642 0.5 12.5 0.835786 12.5 1.25V2H13.25C14.4926 2 15.5 3.00736 15.5 4.25V13.25C15.5 14.4926 14.4926 15.5 13.25 15.5H2.75C1.50736 15.5 0.5 14.4926 0.5 13.25V4.25C0.5 3.00736 1.50736 2 2.75 2H3.5V1.25C3.5 0.835786 3.83579 0.5 4.25 0.5ZM11 3.5V4.25C11 4.66421 11.3358 5 11.75 5C12.1642 5 12.5 4.66421 12.5 4.25V3.5H13.25C13.6642 3.5 14 3.83579 14 4.25V6.5H2V4.25C2 3.83579 2.33579 3.5 2.75 3.5H3.5V4.25C3.5 4.66421 3.83579 5 4.25 5C4.66421 5 5 4.66421 5 4.25V3.5H11ZM2 8V13.25C2 13.6642 2.33579 14 2.75 14H13.25C13.6642 14 14 13.6642 14 13.25V8H2Z" fill="white"/>
</svg>
