<svg width="18" height="18" viewBox="0 0 18 18" fill="none" xmlns="http://www.w3.org/2000/svg">
<path fill-rule="evenodd" clip-rule="evenodd" d="M9 15C12.3137 15 15 12.3137 15 9C15 5.68629 12.3137 3 9 3C5.68629 3 3 5.68629 3 9C3 12.3137 5.68629 15 9 15ZM9 16.5C13.1421 16.5 16.5 13.1421 16.5 9C16.5 4.85786 13.1421 1.5 9 1.5C4.85786 1.5 1.5 4.85786 1.5 9C1.5 13.1421 4.85786 16.5 9 16.5Z" fill="#121926"/>
<path fill-rule="evenodd" clip-rule="evenodd" d="M9 4.5C9.41421 4.5 9.75 4.83579 9.75 5.25V8.68934L11.4053 10.3447C11.6982 10.6376 11.6982 11.1124 11.4053 11.4053C11.1124 11.6982 10.6376 11.6982 10.3447 11.4053L8.68934 9.75C8.40804 9.4687 8.25 9.08716 8.25 8.68934V5.25C8.25 4.83579 8.58579 4.5 9 4.5Z" fill="#121926"/>
</svg>
