<svg width="38" height="38" viewBox="0 0 38 38" fill="none" xmlns="http://www.w3.org/2000/svg">
<rect x="0.5" y="0.5" width="37" height="37" rx="5.5" fill="white" stroke="#F4F4F4"/>
<path fill-rule="evenodd" clip-rule="evenodd" d="M19 27C23.4183 27 27 23.4183 27 19C27 14.5817 23.4183 11 19 11C14.5817 11 11 14.5817 11 19C11 23.4183 14.5817 27 19 27ZM19 29C24.5228 29 29 24.5228 29 19C29 13.4772 24.5228 9 19 9C13.4772 9 9 13.4772 9 19C9 24.5228 13.4772 29 19 29Z" fill="#1F1F1F"/>
<circle cx="19" cy="25" r="1" fill="white"/>
<path fill-rule="evenodd" clip-rule="evenodd" d="M19 15C18.1308 15 17.3886 15.5551 17.1136 16.3332C16.9295 16.854 16.3582 17.1269 15.8375 16.9428C15.3168 16.7588 15.0438 16.1875 15.2279 15.6668C15.7765 14.1145 17.2568 13 19 13C21.2091 13 23 14.7909 23 17C23 18.8638 21.7252 20.4299 20 20.874V22C20 22.5523 19.5523 23 19 23C18.4477 23 18 22.5523 18 22V20C18 19.4477 18.4477 19 19 19C20.1046 19 21 18.1046 21 17C21 15.8954 20.1046 15 19 15Z" fill="#1F1F1F"/>
</svg>
