<svg width="38" height="38" viewBox="0 0 38 38" fill="none" xmlns="http://www.w3.org/2000/svg">
<rect x="0.5" y="0.5" width="37" height="37" rx="5.5" fill="white" stroke="#F4F4F4"/>
<rect width="24" height="24" transform="translate(7 7)" fill="white"/>
<path fill-rule="evenodd" clip-rule="evenodd" d="M11 23C11 22.4477 11.4477 22 12 22H26C26.5523 22 27 22.4477 27 23C27 23.5523 26.5523 24 26 24H12C11.4477 24 11 23.5523 11 23Z" fill="#1F1F1F"/>
<path fill-rule="evenodd" clip-rule="evenodd" d="M11 15C11 14.4477 11.4477 14 12 14H26C26.5523 14 27 14.4477 27 15C27 15.5523 26.5523 16 26 16H12C11.4477 16 11 15.5523 11 15Z" fill="#1F1F1F"/>
</svg>
